<?xml version="1.0" encoding="UTF-8" standalone="no"?>
<!-- Generator: Adobe Illustrator 24.3.0, SVG Export Plug-In . SVG Version: 6.00 Build 0)  -->

<svg
   version="1.1"
   id="Layer_1"
   x="0px"
   y="0px"
   viewBox="0 0 450.0917 151.97154"
   xml:space="preserve"
   sodipodi:docname="The Office TV Show Sign Logo Vector.svg"
   width="450.09171"
   height="151.97154"
   inkscape:export-filename="The Office TV Show Sign Logo Vector.png"
   inkscape:export-xdpi="50.535778"
   inkscape:export-ydpi="50.535778"
   inkscape:version="1.2.2 (732a01da63, 2022-12-09)"
   xmlns:inkscape="http://www.inkscape.org/namespaces/inkscape"
   xmlns:sodipodi="http://sodipodi.sourceforge.net/DTD/sodipodi-0.dtd"
   xmlns="http://www.w3.org/2000/svg"
   xmlns:svg="http://www.w3.org/2000/svg"><defs
   id="defs339" /><sodipodi:namedview
   id="namedview337"
   pagecolor="#ffffff"
   bordercolor="#000000"
   borderopacity="0.25"
   inkscape:showpageshadow="2"
   inkscape:pageopacity="0.0"
   inkscape:pagecheckerboard="0"
   inkscape:deskcolor="#d1d1d1"
   showgrid="false"
   inkscape:zoom="2.3673935"
   inkscape:cx="209.51312"
   inkscape:cy="77.300204"
   inkscape:window-width="1920"
   inkscape:window-height="1017"
   inkscape:window-x="-8"
   inkscape:window-y="-8"
   inkscape:window-maximized="1"
   inkscape:current-layer="g334" />


<g
   id="g334"
   style="display:inline"
   transform="translate(-24.951943,-172.79386)">
	<rect
   style="display:none;fill:#000000;fill-opacity:1;stroke:none;stroke-width:0.266667;stroke-linecap:round"
   id="rect1231"
   width="450.00101"
   height="152.09915"
   x="25"
   y="172.76384"
   inkscape:label="rect1231" /><path
   style="display:none;fill:#010101"
   d="M 466.425,324.863 H 33.575 C 28.793,324.863 25,321.07 25,316.288 V 183.712 c 0,-4.782 3.793,-8.575 8.575,-8.575 h 432.851 c 4.782,0 8.575,3.793 8.575,8.575 v 132.576 c -10e-4,4.617 -3.794,8.575 -8.576,8.575 z"
   id="path296" />
	<path
   style="fill:#ffffff"
   d="m 335.004,197.728 c 0,5.112 -4.122,9.234 -9.399,9.234 -5.112,0 -9.399,-4.122 -9.399,-9.234 0,-5.112 4.122,-9.234 9.399,-9.234 5.276,0 9.399,4.122 9.399,9.234 z"
   id="path298" />
	<polygon
   style="fill:#ffffff"
   points="369.632,265.665 369.632,308.208 375.073,308.208 375.073,265.5 401.786,265.5 401.786,262.862 355.121,262.862 355.121,265.665 "
   id="polygon300" />
	<polygon
   style="fill:#ffffff"
   points="405.579,308.043 405.579,279.351 437.898,279.351 437.898,232.851 441.691,232.851 441.691,308.208 437.898,308.208 437.898,284.793 410.856,284.793 410.856,308.208 "
   id="polygon302" />
	<path
   style="fill:#ffffff"
   d="m 418.441,261.378 c 0,-2.144 0,-5.442 0,-5.442 0,0 10.553,-12.202 14.181,-16.654 3.463,-4.782 -3.463,-13.851 -11.872,-7.585 0,0 -3.298,3.298 -3.793,3.463 -1.979,-10.883 19.458,-14.841 19.458,-0.989 0,13.852 -0.824,29.846 -0.824,29.846 -0.331,-1.815 -5.278,-5.937 -17.15,-2.639 z"
   id="path304" />
	<path
   style="fill:#ffffff"
   d="m 431.797,214.053 c 1.154,4.947 -1.484,9.729 -5.936,10.718 -4.452,0.989 -9.069,-2.144 -10.388,-7.091 -1.154,-4.947 1.484,-9.729 5.936,-10.718 4.452,-1.154 9.069,2.144 10.388,7.091 z"
   id="path306" />
	<path
   style="fill:#ffffff"
   d="m 429.654,239.612 c 4.782,-5.277 -3.133,-12.037 -8.904,-5.442 -8.41,10.388 -12.697,15.5 -12.697,15.5 0,0 -15.83,3.793 -19.128,4.452 -3.298,0.659 -4.782,8.575 1.319,7.915 9.564,-1.319 20.447,-2.968 20.447,-2.968 0,0 1.649,0.165 4.617,-2.968 2.968,-3.133 14.346,-16.489 14.346,-16.489 z"
   id="path308" />
	<path
   style="fill:#ffffff"
   d="m 403.765,277.702 c 0,0 -7.75,21.931 -9.564,26.548 -1.814,4.782 -10.059,3.957 -8.904,-2.968 2.473,-9.234 7.75,-28.857 7.75,-28.857 0,0 0.824,-5.442 8.739,-6.596 7.915,-1.154 6.101,-0.989 21.766,-3.463 15.665,-2.473 14.511,12.862 4.782,13.851 -16.984,1.156 -24.569,1.485 -24.569,1.485 z"
   id="path310" />
	<path
   style="fill:#ffffff"
   d="m 333.849,208.941 c 0,0 -9.729,0 -18.963,0 -9.234,0 -11.543,6.101 -11.543,12.697 0,6.596 0,23.25 0,27.867 -4.452,0 -4.617,3.133 -4.617,3.133 v 3.793 h -5.936 v 30.671 l 20.777,-0.165 v 9.564 c 0.33,6.761 10.718,6.266 10.883,0 0,-4.782 0,-41.059 0,-41.059 h 2.638 c 0,0 0,31.99 0,40.894 0,7.42 10.553,6.431 10.553,0 0,-6.431 0,-70.905 0,-70.905 h 1.814 c 0,0 0,15.335 0,23.745 0.165,6.761 8.739,5.771 8.739,0 0,-5.771 0,-6.761 0,-24.24 10e-4,-17.149 -14.345,-15.995 -14.345,-15.995 z m -24.404,46.995 h -7.75 c 0,0 0,-0.989 0,-2.473 0,-1.319 1.154,-1.319 1.154,-1.319 0,0 0.824,0 2.473,0 0.824,1.814 4.287,0.66 4.287,0.66 v 3.133 h -0.164 z m 4.617,-0.165 h -1.319 c 0,0 0.495,-4.782 -0.495,-4.782 0,-2.309 0,-25.559 0,-25.559 h 1.814 z"
   id="path312" />
	<path
   style="fill:#ffffff"
   d="m 41.819,210.92 v -5.936 h 26.218 v 5.936 h -9.564 v 26.053 H 51.547 V 210.92 Z"
   id="path314" />
	<path
   style="fill:#ffffff"
   d="m 77.272,204.984 v 12.037 h 0.165 c 0.824,-1.319 1.814,-2.309 3.133,-2.968 1.319,-0.66 2.473,-0.989 3.628,-0.989 1.649,0 3.133,0.165 4.122,0.66 1.154,0.495 1.979,1.154 2.638,1.979 0.66,0.824 0.989,1.814 1.319,2.968 0.33,1.154 0.33,2.473 0.33,3.957 v 14.181 h -6.266 v -13.027 c 0,-1.979 -0.33,-3.298 -0.824,-4.287 -0.66,-0.989 -1.649,-1.484 -3.133,-1.484 -1.649,0 -2.968,0.495 -3.793,1.484 -0.824,0.989 -1.154,2.638 -1.154,5.112 v 12.037 h -6.266 v -31.825 h 6.101 z"
   id="path316" />
	<path
   style="fill:#ffffff"
   d="m 104.15,231.202 c 0.989,0.989 2.309,1.319 4.122,1.319 1.319,0 2.309,-0.33 3.298,-0.989 0.989,-0.66 1.484,-1.319 1.649,-1.979 h 5.606 c -0.824,2.803 -2.309,4.782 -4.122,5.936 -1.814,1.154 -4.122,1.814 -6.761,1.814 -1.814,0 -3.463,-0.33 -4.947,-0.824 -1.484,-0.66 -2.638,-1.484 -3.628,-2.473 -0.989,-0.989 -1.814,-2.309 -2.309,-3.793 -0.495,-1.484 -0.824,-3.133 -0.824,-4.947 0,-1.649 0.33,-3.298 0.824,-4.782 0.495,-1.484 1.319,-2.803 2.473,-3.793 0.989,-1.154 2.309,-1.979 3.793,-2.638 1.484,-0.66 2.968,-0.989 4.782,-0.989 1.979,0 3.628,0.33 5.112,1.154 1.484,0.824 2.638,1.814 3.628,3.133 0.989,1.319 1.649,2.803 1.979,4.452 0.495,1.649 0.495,3.298 0.495,5.112 h -16.654 c 0.165,1.978 0.659,3.462 1.484,4.287 z m 7.255,-12.037 c -0.824,-0.824 -1.979,-1.319 -3.463,-1.319 -0.989,0 -1.814,0.165 -2.473,0.495 -0.659,0.33 -1.154,0.824 -1.649,1.319 -0.33,0.495 -0.66,0.989 -0.824,1.649 -0.165,0.495 -0.33,0.989 -0.33,1.484 h 10.388 c -0.33,-1.65 -0.824,-2.804 -1.649,-3.628 z"
   id="path318" />
	<path
   style="fill:#ffffff"
   d="m 47.261,264.181 c 0.989,-2.803 2.309,-5.112 3.957,-7.255 1.814,-1.979 3.793,-3.628 6.431,-4.782 2.473,-1.154 5.442,-1.814 8.575,-1.814 3.133,0 6.101,0.66 8.575,1.814 2.473,1.154 4.617,2.803 6.431,4.782 1.814,1.979 3.133,4.452 3.957,7.255 0.989,2.803 1.319,5.771 1.319,8.904 0,3.133 -0.495,6.101 -1.319,8.739 -0.989,2.638 -2.309,5.112 -3.957,7.091 -1.814,1.979 -3.793,3.628 -6.431,4.782 -2.473,1.154 -5.277,1.649 -8.575,1.649 -3.133,0 -5.936,-0.495 -8.575,-1.649 -2.473,-1.154 -4.617,-2.803 -6.431,-4.782 -1.814,-1.979 -3.133,-4.452 -3.957,-7.091 -0.989,-2.638 -1.319,-5.606 -1.319,-8.739 0,-3.298 0.33,-6.266 1.319,-8.904 z m 8.245,14.181 c 0.33,1.649 0.989,3.298 1.979,4.617 0.824,1.319 1.979,2.473 3.463,3.298 1.484,0.824 3.133,1.319 5.277,1.319 1.979,0 3.793,-0.495 5.277,-1.319 1.484,-0.824 2.638,-1.979 3.463,-3.298 0.824,-1.319 1.484,-2.968 1.979,-4.617 0.33,-1.649 0.66,-3.463 0.66,-5.277 0,-1.814 -0.165,-3.793 -0.66,-5.442 -0.33,-1.814 -0.989,-3.298 -1.979,-4.782 -0.824,-1.319 -1.979,-2.473 -3.463,-3.298 -1.484,-0.824 -3.133,-1.319 -5.277,-1.319 -1.979,0 -3.793,0.495 -5.277,1.319 -1.484,0.824 -2.638,1.979 -3.463,3.298 -0.824,1.319 -1.484,2.968 -1.979,4.782 -0.33,1.814 -0.66,3.628 -0.66,5.442 0.165,1.814 0.33,3.628 0.66,5.277 z"
   id="path320" />
	<path
   style="fill:#ffffff"
   d="m 87.99,268.798 v -5.771 h 5.277 v -2.473 c 0,-2.803 0.824,-5.112 2.638,-6.926 1.814,-1.814 4.452,-2.638 8.08,-2.638 0.824,0 1.649,0 2.309,0.165 0.824,0 1.484,0.165 2.309,0.165 v 6.431 c -0.989,-0.165 -2.144,-0.165 -3.298,-0.165 -1.154,0 -2.144,0.33 -2.638,0.824 -0.495,0.495 -0.824,1.484 -0.824,2.803 v 1.814 h 6.101 v 5.771 h -6.101 v 25.724 h -8.904 v -25.724 z"
   id="path322" />
	<path
   style="fill:#ffffff"
   d="m 107.942,268.798 v -5.771 h 5.277 v -2.473 c 0,-2.803 0.824,-5.112 2.638,-6.926 1.814,-1.814 4.452,-2.638 8.08,-2.638 0.824,0 1.649,0 2.309,0.165 0.824,0 1.484,0.165 2.309,0.165 v 6.431 c -0.989,-0.165 -2.144,-0.165 -3.298,-0.165 -1.154,0 -2.144,0.33 -2.638,0.824 -0.495,0.495 -0.824,1.484 -0.824,2.803 v 1.814 h 6.101 v 5.771 h -6.101 v 25.724 h -8.904 v -25.724 z"
   id="path324" />
	<path
   style="fill:#ffffff"
   d="m 132.677,258.245 v -7.09 h 8.904 v 7.09 z m 8.739,4.782 v 31.495 h -8.904 v -31.495 z"
   id="path326" />
	<path
   style="fill:#ffffff"
   d="m 160.379,268.798 c -1.319,0 -2.473,0.33 -3.298,0.989 -0.824,0.66 -1.649,1.484 -2.144,2.473 -0.495,0.989 -0.989,2.144 -1.154,3.298 -0.165,1.154 -0.33,2.309 -0.33,3.628 0,1.154 0.165,2.309 0.33,3.463 0.165,1.154 0.66,2.309 1.154,3.133 0.495,0.989 1.154,1.814 2.144,2.309 0.824,0.66 1.979,0.989 3.298,0.989 1.979,0 3.463,-0.66 4.617,-1.814 0.989,-1.154 1.649,-2.638 1.979,-4.617 h 7.915 c -0.495,4.122 -2.144,7.42 -4.617,9.564 -2.473,2.144 -5.771,3.298 -9.729,3.298 -2.309,0 -4.287,-0.33 -6.101,-1.154 -1.814,-0.824 -3.463,-1.979 -4.782,-3.298 -1.319,-1.484 -2.309,-3.133 -3.133,-5.112 -0.66,-1.979 -1.154,-4.122 -1.154,-6.431 0,-2.473 0.33,-4.617 0.989,-6.761 0.66,-2.144 1.649,-3.957 2.968,-5.442 1.319,-1.485 2.968,-2.638 4.782,-3.628 1.814,-0.824 4.122,-1.319 6.431,-1.319 1.814,0 3.463,0.165 5.112,0.66 1.649,0.495 3.133,1.154 4.452,2.144 1.319,0.989 2.309,2.309 3.133,3.793 0.824,1.484 1.319,3.298 1.319,5.277 h -8.08 c -0.494,-3.628 -2.638,-5.442 -6.101,-5.442 z"
   id="path328" />
	<path
   style="fill:#ffffff"
   d="m 189.071,286.937 c 1.154,1.319 2.968,1.814 5.277,1.814 1.649,0 3.133,-0.495 4.287,-1.319 1.154,-0.824 1.979,-1.814 2.144,-2.803 h 7.255 c -1.154,3.793 -2.968,6.431 -5.277,8.08 -2.309,1.649 -5.277,2.473 -8.575,2.473 -2.309,0 -4.452,-0.33 -6.266,-1.154 -1.814,-0.824 -3.463,-1.979 -4.782,-3.298 -1.319,-1.484 -2.309,-3.133 -2.968,-5.277 -0.66,-1.979 -0.989,-4.287 -0.989,-6.761 0,-2.309 0.33,-4.617 1.154,-6.596 0.66,-1.979 1.814,-3.793 3.133,-5.277 1.319,-1.484 2.968,-2.638 4.782,-3.463 1.814,-0.824 3.958,-1.319 6.266,-1.319 2.473,0 4.782,0.495 6.596,1.484 1.814,0.989 3.463,2.473 4.617,4.122 1.154,1.814 2.144,3.793 2.638,5.936 0.495,2.309 0.66,4.617 0.495,6.926 h -21.436 c -0.165,3.134 0.495,5.277 1.649,6.432 z m 9.234,-16.49 c -0.989,-1.154 -2.473,-1.649 -4.452,-1.649 -1.319,0 -2.473,0.165 -3.298,0.66 -0.825,0.495 -1.484,0.989 -2.144,1.814 -0.495,0.66 -0.824,1.484 -1.154,2.144 -0.165,0.824 -0.33,1.484 -0.33,2.144 h 13.357 c -0.165,-2.31 -0.989,-3.959 -1.979,-5.113 z"
   id="path330" />
	<path
   style="fill:#ffffff;stroke-width:4;stroke-dasharray:none;stroke:#ffffff;stroke-opacity:1"
   d="m 459.17,181.733 c 5.606,0 10.059,4.452 10.059,10.059 v 114.273 c 0,5.606 -4.452,10.059 -10.059,10.059 H 273.663 c -5.606,0 -10.059,-4.452 -10.059,-10.059 V 191.792 c 0,-5.606 4.452,-10.059 10.059,-10.059 H 459.17 m 0,-1.649 H 273.663 c -6.431,0 -11.708,5.277 -11.708,11.872 v 114.273 c 0,6.596 5.277,11.872 11.708,11.872 H 459.17 c 6.431,0 11.708,-5.277 11.708,-11.872 V 191.957 c 0,-6.596 -5.277,-11.873 -11.708,-11.873 z"
   id="path332" />
</g>
</svg>
